<?xml version="1.0" standalone="no"?>
<!DOCTYPE svg PUBLIC "-//W3C//DTD SVG 20010904//EN"
 "http://www.w3.org/TR/2001/REC-SVG-20010904/DTD/svg10.dtd">
<svg version="1.0" xmlns="http://www.w3.org/2000/svg"
 width="276.000000pt" height="258.000000pt" viewBox="0 0 276.000000 258.000000"
 preserveAspectRatio="xMidYMid meet">

<g transform="translate(0.000000,258.000000) scale(0.100000,-0.100000)"
fill="#000000" stroke="none">
<path d="M1145 2530 c-3 -5 8 -11 25 -15 16 -4 30 -10 30 -13 0 -4 1 -62 3
-130 2 -120 2 -122 -20 -122 -12 0 -25 -4 -28 -10 -4 -6 18 -10 59 -10 37 0
66 4 66 10 0 6 43 10 108 10 60 0 133 4 163 9 153 26 469 29 504 5 10 -8 30
-14 43 -14 20 0 13 8 -38 46 -34 25 -83 57 -109 72 -25 14 -59 34 -76 44 -16
10 -37 21 -45 24 -8 3 -29 12 -47 20 -17 8 -38 14 -46 14 -9 0 -19 5 -22 10
-3 6 -19 10 -34 10 -15 0 -31 4 -37 9 -20 20 -157 35 -321 37 -95 1 -175 -1
-178 -6z"/>
<path d="M1278 2069 c-21 -5 -84 -13 -140 -19 -57 -6 -141 -15 -188 -19 -47
-5 -100 -10 -117 -10 -35 -1 -47 -21 -13 -21 25 0 27 -35 3 -44 -14 -6 -14 -8
3 -20 14 -11 16 -17 7 -27 -17 -21 -21 -85 -5 -81 6 1 12 -2 12 -8 0 -5 -4
-10 -9 -10 -4 0 -12 -28 -17 -62 -9 -62 -10 -63 -44 -69 -25 -4 -8 -8 63 -13
54 -5 119 -5 145 -1 111 18 551 21 582 5 15 -8 53 -9 123 -4 108 8 110 9 35
19 l-48 6 0 98 c0 54 3 101 8 105 4 4 7 22 8 39 1 61 12 76 54 78 14 1 -2 5
-35 10 -33 5 -61 13 -63 19 -2 6 -47 10 -105 11 -94 0 -169 8 -207 22 -8 3
-32 1 -52 -4z"/>
<path d="M654 1479 c-29 -5 -94 -13 -145 -17 -65 -7 -87 -12 -71 -17 22 -7 22
-10 21 -140 -1 -72 1 -137 4 -142 4 -6 -3 -13 -15 -16 -82 -22 146 -41 523
-43 332 -3 485 5 319 16 l-75 5 -3 154 c-2 134 0 155 14 166 14 10 -8 13 -116
19 -73 4 -141 11 -151 16 -21 12 -234 11 -305 -1z"/>
<path d="M775 911 c11 -5 30 -10 42 -10 28 -1 34 -20 15 -50 -12 -17 -15 -47
-13 -119 1 -53 7 -100 13 -103 12 -8 -7 -49 -23 -49 -6 0 -7 -4 -4 -10 3 -5
41 -10 84 -10 43 0 91 -4 107 -10 79 -26 416 -49 439 -30 9 7 71 14 160 18 80
2 145 9 145 13 0 5 -17 9 -37 10 -24 0 -32 3 -21 7 15 6 15 11 2 47 -15 44
-19 211 -5 219 5 3 7 15 4 26 -4 16 0 20 18 20 14 0 19 4 14 9 -6 5 -172 12
-370 15 -198 3 -412 8 -475 11 -75 3 -108 2 -95 -4z"/>
<path d="M1788 913 c7 -3 16 -2 19 1 4 3 -2 6 -13 5 -11 0 -14 -3 -6 -6z"/>
<path d="M1103 373 c9 -2 25 -2 35 0 9 3 1 5 -18 5 -19 0 -27 -2 -17 -5z"/>
<path d="M1174 351 c4 -6 15 -11 25 -11 16 0 18 -6 13 -47 -2 -27 -9 -57 -15
-67 -7 -15 -5 -23 9 -34 13 -10 15 -16 7 -19 -19 -7 -16 -33 3 -33 12 0 15 -6
9 -22 -3 -13 -7 -28 -7 -34 -1 -6 -13 -11 -26 -10 -14 1 -27 -5 -29 -11 -3 -9
7 -13 31 -13 20 0 36 -4 36 -9 0 -13 136 -21 168 -10 15 5 66 14 113 19 142
15 194 29 304 82 77 36 132 67 172 96 17 12 35 22 40 22 4 0 19 12 32 25 13
14 36 33 52 42 16 10 29 20 29 23 0 10 -154 -6 -177 -18 -26 -15 -151 -15
-253 -1 -187 26 -546 46 -536 30z"/>
</g>
</svg>
