<svg xmlns="http://www.w3.org/2000/svg" width="14" height="15" viewBox="0 0 14 15" version="1.1"><path d="M 4 1 C 2.910 1.704, 3.730 1.969, 7 1.969 C 10.270 1.969, 11.090 1.704, 10 1 C 9.175 0.467, 7.825 0.031, 7 0.031 C 6.175 0.031, 4.825 0.467, 4 1 M 1.500 4 C 1.114 4.625, 3.176 5, 7 5 C 10.824 5, 12.886 4.625, 12.500 4 C 12.160 3.450, 9.685 3, 7 3 C 4.315 3, 1.840 3.450, 1.500 4 M 0.500 7 C 0.112 7.628, 2.323 8, 6.441 8 C 10.147 8, 13 7.565, 13 7 C 13 5.693, 1.308 5.693, 0.500 7 M 1 10 C 1 10.556, 3.667 11, 7 11 C 10.333 11, 13 10.556, 13 10 C 13 9.444, 10.333 9, 7 9 C 3.667 9, 1 9.444, 1 10 M 4.471 13.554 C 5.556 14.374, 7.055 14.809, 7.803 14.522 C 8.551 14.235, 9.577 14, 10.082 14 C 10.587 14, 11 13.550, 11 13 C 11 12.450, 9.088 12.014, 6.750 12.032 C 2.767 12.062, 2.624 12.157, 4.471 13.554" stroke="none" fill="#10a693" fill-rule="evenodd"/><path d="M -0.002 3.250 L -0.004 6.500 6.498 6.165 C 10.713 5.947, 13 6.211, 13 6.915 C 13 7.584, 10.507 8, 6.500 8 L 0 8 0 11.500 C 0 14.769, 0.211 15, 3.191 15 C 6.212 15, 6.279 14.922, 4.441 13.532 C 2.635 12.166, 2.796 12.061, 6.750 12.032 C 11.009 12, 12.535 13.416, 9.250 14.352 C 8.288 14.626, 9.075 14.772, 11 14.675 L 14.500 14.500 14.723 7.250 L 14.946 -0 11.723 0.015 C 9.274 0.027, 8.860 0.263, 10 1 C 11.090 1.704, 10.270 1.969, 7 1.969 C 3.730 1.969, 2.910 1.704, 4 1 C 5.169 0.245, 4.893 0.027, 2.750 0.015 C 0.311 0.002, -0 0.368, -0.002 3.250 M 0.195 4 C 0.175 5.925, 0.385 6.938, 0.662 6.250 C 0.989 5.441, 3.326 5, 7.283 5 C 11.742 5, 13.101 4.701, 12.297 3.897 C 11.677 3.277, 8.971 2.949, 6.121 3.147 C 2.249 3.416, 0.952 3.145, 0.640 2 C 0.416 1.175, 0.215 2.075, 0.195 4 M 0.134 12 C 0.227 14.341, 0.416 14.755, 0.706 13.250 C 1.097 11.218, 1.715 11, 7.070 11 C 15.094 11, 14.633 9.255, 6.498 8.835 L -0.004 8.500 0.134 12" stroke="none" fill="#dcf2f0" fill-rule="evenodd"/></svg>